<svg xmlns="http://www.w3.org/2000/svg" width="154" height="34"><defs><linearGradient id="a" x1="0%" y1="31.921%" y2="74.369%"><stop offset="0%" stop-color="#ffffff"/><stop offset="100%" stop-color="#ffffff"/></linearGradient></defs><g fill="none" fill-rule="evenodd"><path fill="url(#a)" fill-rule="nonzero" d="M17.333 12.857V0H39v12.857H17.333zM0 30V17.143h21.666V30H0zm0-17.143V8.572C0 3.838 3.88 0 8.667 0H13v12.857H0zM26 30V17.143h13v4.286C39 26.163 35.12 30 30.333 30H26z" transform="translate(0 2)"/><path fill="#ffffff" d="M66.722 17.108c0-.806-.676-1.118-2.158-1.612l-1.976-.65c-1.664-.546-3.198-1.82-3.198-4.16 0-2.626 2.21-4.342 5.824-4.342 1.56 0 3.458.13 5.252.65l-1.534 3.822h-.364l-2.132-2.964c-.104-.156-.208-.234-.338-.26-.182-.026-.39-.026-.676-.026-1.118 0-1.976.468-1.976 1.378 0 .936.91 1.43 2.028 1.82l2.132.702c1.716.546 3.276 1.638 3.276 3.64 0 3.12-2.704 4.706-6.682 4.706-1.794 0-3.744-.312-5.2-.858l1.508-3.9h.364l2.21 3.198a.57.57 0 0 0 .364.26c.26.052.598.078.988.078 1.222 0 2.288-.442 2.288-1.482zM79.748 19.5h-7.566v-.364l1.092-1.222c.182-.182.182-.26.182-.546V4.094c0-.312 0-.39-.182-.598l-1.092-1.248v-.364L78.474 1v16.368c0 .286 0 .364.182.546l1.092 1.222v.364zm8.658.312c-4.784 0-7.358-2.418-7.358-6.656 0-4.29 2.652-6.812 7.462-6.812 4.758 0 7.306 2.47 7.306 6.656 0 4.264-2.652 6.812-7.41 6.812zm.052-1.404c1.17 0 1.846-1.378 1.846-5.252 0-4.004-.728-5.408-1.898-5.408-1.144 0-1.846 1.326-1.846 5.252 0 4.004.728 5.408 1.898 5.408zm14.066-6.656c0 3.692 1.794 4.914 3.666 4.914 1.118 0 2.21-.416 2.912-1.326l.364.182c-.806 2.704-2.704 4.29-5.798 4.29-3.536 0-6.448-2.106-6.448-6.578 0-4.888 3.458-6.89 7.67-6.89 1.352 0 2.99.208 4.654.858l-1.898 4.628h-.39l-1.976-3.848c-.104-.234-.26-.338-.468-.338h-.182c-1.404 0-2.106 1.794-2.106 4.108zm23.66 7.748h-5.85l-3.302-6.37c-.052-.104-.13-.182-.208-.208v4.446c0 .286 0 .364.182.546l1.092 1.222v.364h-7.566v-.364l1.092-1.222c.182-.182.182-.26.182-.546V4.094c0-.312 0-.39-.182-.598l-1.092-1.248v-.364L116.824 1v11.558l3.302-2.6c.234-.182.26-.416.078-.702l-1.378-2.236v-.364h6.942v.364l-4.29 3.276c-.13.104-.156.234-.078.364l3.484 6.708c.182.312.364.624.65.936l.65.832v.364zm1.222-2.34c0-1.56 1.144-2.73 2.678-2.73 1.482 0 2.678 1.196 2.678 2.73s-1.196 2.678-2.678 2.678c-1.534 0-2.678-1.144-2.678-2.678zm8.58-14.612c0-1.56 1.17-2.548 2.6-2.548 1.43 0 2.548.988 2.548 2.548s-1.118 2.548-2.548 2.548-2.6-.988-2.6-2.548zm.078 14.82V9.074c0-.312 0-.39-.182-.598L134.79 7.02v-.364h6.292v10.712c0 .286 0 .364.182.546l1.092 1.222v.364h-7.566v-.364l1.092-1.222c.182-.182.182-.26.182-.546zM149.61 2.08h.312v4.576h2.782v1.56h-2.782v7.436c0 1.274.598 1.508 1.3 1.508.598 0 1.04-.182 1.352-.676l.364.13c-.208 1.872-1.508 3.198-4.134 3.198-2.574 0-3.874-1.274-3.874-3.848V8.216h-1.482v-1.56h.702c.39 0 .52-.052.91-.39l4.55-4.186z"/><path fill="#ffffff" fill-rule="nonzero" d="M63.83 31.75V32h-.79l-.59-1.83h-2.86L59 32h-.71v-.25l2.16-6.54h1.17l2.21 6.54zm-1.61-2.27l-1.2-3.7-1.2 3.7h2.4zM67.19 32v-6.79h1.85c.66-.013 1.167.118 1.52.395s.53.692.53 1.245c0 .387-.095.7-.285.94-.19.24-.432.403-.725.49v.03c.453.033.808.182 1.065.445.257.263.385.645.385 1.145 0 .74-.215 1.275-.645 1.605-.43.33-1.082.495-1.955.495h-1.74zm1.76-3.93c.467 0 .805-.095 1.015-.285.21-.19.315-.472.315-.845 0-.367-.108-.633-.325-.8-.217-.167-.572-.25-1.065-.25h-.87v2.18h.93zm.16 3.26c.533 0 .93-.102 1.19-.305.26-.203.39-.548.39-1.035 0-.467-.13-.802-.39-1.005-.26-.203-.653-.305-1.18-.305h-1.1v2.65h1.09zm3.63-6.32h.77V32h-.77v-6.99zm3.97 7.05c-.647 0-1.137-.203-1.47-.61-.333-.407-.5-.993-.5-1.76 0-.873.188-1.527.565-1.96.377-.433.908-.65 1.595-.65.647 0 1.137.202 1.47.605.333.403.5.985.5 1.745 0 .88-.188 1.538-.565 1.975-.377.437-.908.655-1.595.655zm.09-.64c.847 0 1.27-.617 1.27-1.85s-.42-1.85-1.26-1.85c-.847 0-1.27.613-1.27 1.84 0 1.24.42 1.86 1.26 1.86zm5.06.64c-.653 0-1.158-.187-1.515-.56-.357-.373-.535-.98-.535-1.82 0-.893.177-1.55.53-1.97.353-.42.887-.63 1.6-.63.18 0 .37.018.57.055.2.037.37.082.51.135v.64h-.24a5.738 5.738 0 0 0-.505-.14 2.234 2.234 0 0 0-.485-.05 1.01 1.01 0 0 0-.865.435c-.21.29-.315.755-.315 1.395 0 .7.115 1.187.345 1.46.23.273.565.41 1.005.41.287 0 .573-.05.86-.15h.25v.65c-.407.093-.81.14-1.21.14zm6.08-.31V32h-.76l-1.95-2.27h-.26V32h-.77v-6.99h.77v4.08h.25l1.81-1.95h.71v.25l-1.85 1.98 2.05 2.38zm2.7.31c-.653 0-1.158-.187-1.515-.56-.357-.373-.535-.98-.535-1.82 0-.893.177-1.55.53-1.97.353-.42.887-.63 1.6-.63.18 0 .37.018.57.055.2.037.37.082.51.135v.64h-.24a5.738 5.738 0 0 0-.505-.14 2.234 2.234 0 0 0-.485-.05 1.01 1.01 0 0 0-.865.435c-.21.29-.315.755-.315 1.395 0 .7.115 1.187.345 1.46.23.273.565.41 1.005.41.287 0 .573-.05.86-.15h.25v.65c-.407.093-.81.14-1.21.14zm4.65-4.98c.527 0 .912.14 1.155.42.243.28.365.717.365 1.31V32h-.77v-3.03c0-.433-.083-.745-.25-.935-.167-.19-.433-.285-.8-.285-.413 0-.83.09-1.25.27l.01.07V32h-.77v-6.99h.77v1.56c0 .273-.007.563-.02.87.213-.107.457-.193.73-.26.273-.067.55-.1.83-.1zm4.54 0c.593 0 1.027.135 1.3.405.273.27.41.688.41 1.255V32h-.7v-.42c-.407.32-.89.48-1.45.48-.44 0-.79-.122-1.05-.365s-.39-.565-.39-.965c0-.493.162-.877.485-1.15.323-.273.795-.41 1.415-.41.327 0 .63.033.91.1v-.32c0-.46-.08-.78-.24-.96-.16-.18-.44-.27-.84-.27-.207 0-.408.022-.605.065a7.976 7.976 0 0 0-.675.185h-.24v-.64c.627-.167 1.183-.25 1.67-.25zm-1.1 3.56c0 .24.077.432.23.575.153.143.367.215.64.215.2 0 .402-.033.605-.1.203-.067.388-.153.555-.26v-1.19a4.7 4.7 0 0 0-1.05-.11c-.653 0-.98.29-.98.87zm4.27-3.5h.77V32H103v-4.86zm-.06-1.69h.89v.9h-.89v-.9zm4.66 1.63c.527 0 .912.14 1.155.42.243.28.365.717.365 1.31V32h-.77v-3.03c0-.433-.083-.745-.25-.935-.167-.19-.433-.285-.8-.285-.407 0-.82.087-1.24.26V32h-.77v-4.86h.72v.32a3.26 3.26 0 0 1 .74-.275c.28-.07.563-.105.85-.105zm3.91 4.97c-.18 0-.392-.017-.635-.05a3.94 3.94 0 0 1-.595-.12v-.64h.24c.207.053.397.095.57.125.173.03.363.045.57.045.28 0 .5-.063.66-.19a.607.607 0 0 0 .24-.5c0-.24-.08-.42-.24-.54-.16-.12-.407-.243-.74-.37a5.485 5.485 0 0 1-.665-.285 1.17 1.17 0 0 1-.43-.4c-.117-.177-.175-.405-.175-.685 0-.413.14-.743.42-.99.28-.247.68-.37 1.2-.37.333 0 .717.06 1.15.18v.64h-.23c-.373-.12-.7-.18-.98-.18-.253 0-.45.057-.59.17a.571.571 0 0 0-.21.47c0 .22.077.385.23.495.153.11.393.225.72.345.273.093.497.187.67.28.173.093.322.23.445.41.123.18.185.417.185.71 0 .453-.15.808-.45 1.065-.3.257-.753.385-1.36.385zm7.67.03c-.94 0-1.635-.272-2.085-.815-.45-.543-.675-1.375-.675-2.495 0-1.233.252-2.142.755-2.725.503-.583 1.262-.875 2.275-.875.387 0 .77.05 1.15.15v.69h-.24a4.855 4.855 0 0 0-.515-.12 3.353 3.353 0 0 0-.555-.04c-.68 0-1.188.222-1.525.665-.337.443-.505 1.162-.505 2.155 0 .953.17 1.645.51 2.075.34.43.883.645 1.63.645.307 0 .647-.053 1.02-.16h.24v.69c-.36.107-.853.16-1.48.16zm4.31-.02c-.647 0-1.137-.203-1.47-.61-.333-.407-.5-.993-.5-1.76 0-.873.188-1.527.565-1.96.377-.433.908-.65 1.595-.65.647 0 1.137.202 1.47.605.333.403.5.985.5 1.745 0 .88-.188 1.538-.565 1.975-.377.437-.908.655-1.595.655zm.09-.64c.847 0 1.27-.617 1.27-1.85s-.42-1.85-1.26-1.85c-.847 0-1.27.613-1.27 1.84 0 1.24.42 1.86 1.26 1.86zm8.05-4.34c.507 0 .868.138 1.085.415.217.277.325.708.325 1.295V32h-.77v-3.08c0-.447-.067-.753-.2-.92-.133-.167-.357-.25-.67-.25-.38 0-.76.1-1.14.3.053.193.08.45.08.77V32h-.76v-3.08c0-.447-.067-.753-.2-.92-.133-.167-.357-.25-.67-.25-.367 0-.72.087-1.06.26V32h-.77v-4.86h.72v.32c.193-.113.412-.205.655-.275.243-.07.468-.105.675-.105.54 0 .92.163 1.14.49.207-.16.455-.282.745-.365.29-.083.562-.125.815-.125zm4.75 0c.593 0 1.048.19 1.365.57.317.38.475.967.475 1.76 0 .953-.193 1.633-.58 2.04-.387.407-.967.61-1.74.61-.147 0-.38-.013-.7-.04v1.83h-.78v-6.71h.68v.33c.173-.127.372-.223.595-.29.223-.067.452-.1.685-.1zm-.37 4.34c.46 0 .81-.138 1.05-.415.24-.277.36-.758.36-1.445 0-.667-.107-1.137-.32-1.41-.213-.273-.523-.41-.93-.41-.14 0-.297.023-.47.07-.173.047-.34.11-.5.19v3.35c.34.047.61.07.81.07zm4.99-4.34c.593 0 1.027.135 1.3.405.273.27.41.688.41 1.255V32h-.7v-.42c-.407.32-.89.48-1.45.48-.44 0-.79-.122-1.05-.365s-.39-.565-.39-.965c0-.493.162-.877.485-1.15.323-.273.795-.41 1.415-.41.327 0 .63.033.91.1v-.32c0-.46-.08-.78-.24-.96-.16-.18-.44-.27-.84-.27-.207 0-.408.022-.605.065a7.976 7.976 0 0 0-.675.185h-.24v-.64c.627-.167 1.183-.25 1.67-.25zm-1.1 3.56c0 .24.077.432.23.575.153.143.367.215.64.215.2 0 .402-.033.605-.1.203-.067.388-.153.555-.26v-1.19a4.7 4.7 0 0 0-1.05-.11c-.653 0-.98.29-.98.87zm6.58-3.56c.527 0 .912.14 1.155.42.243.28.365.717.365 1.31V32h-.77v-3.03c0-.433-.083-.745-.25-.935-.167-.19-.433-.285-.8-.285-.407 0-.82.087-1.24.26V32h-.77v-4.86h.72v.32a3.26 3.26 0 0 1 .74-.275c.28-.07.563-.105.85-.105zm6.62.06v.25l-1.54 4.9c-.133.433-.278.765-.435.995-.157.23-.335.39-.535.48-.2.09-.45.135-.75.135-.187 0-.43-.03-.73-.09v-.65h.24c.207.06.383.09.53.09.22 0 .4-.057.54-.17.14-.113.26-.337.36-.67l.13-.41h-.41l-1.49-4.61v-.25h.75l1.31 4.32 1.32-4.32h.71z"/></g></svg>